<?xml version="1.0" encoding="UTF-8"?>
<svg width="187px" height="69px" viewBox="0 0 187 69" version="1.1" xmlns="http://www.w3.org/2000/svg" xmlns:xlink="http://www.w3.org/1999/xlink">
    <!-- Generator: Sketch 61.2 (89653) - https://sketch.com -->
    <title>Group 10</title>
    <desc>Created with Sketch.</desc>
    <defs>
        <polygon id="path-1" points="-1.06699599e-05 -1.06699599e-05 71.9999893 -1.06699599e-05 71.9999893 71.9999893 -1.06699599e-05 71.9999893"></polygon>
    </defs>
    <g id="Header-campanha-volta-as-aulas" stroke="none" stroke-width="1" fill="none" fill-rule="evenodd">
        <g id="00.-Desktop---Escolha-a-etapa" transform="translate(-55.000000, -556.000000)">
            <g id="Group-10" transform="translate(55.000000, 555.000000)">
                <g id="Group-5-Copy-3" transform="translate(0.000000, 38.000000)">
                    <g id="Group-4-Copy-3">
                        <g id="Group-11">
                            <path d="M28.2790698,2.09750567 C28.2790698,3.35600907 29.1627907,4.4047619 30.4883721,4.4047619 C31.8139535,4.4047619 32.6976744,3.56575964 32.6976744,2.30725624 L32.6976744,2.09750567 C32.6976744,0.839002268 31.8139535,-5.68434189e-14 30.4883721,-5.68434189e-14 C29.1627907,-5.68434189e-14 28.2790698,0.839002268 28.2790698,2.09750567" id="Fill-1" fill="#6D2077"></path>
                            <path d="M172.325581,18.0975057 C172.325581,19.3560091 173.209302,20.4047619 174.534884,20.4047619 C175.860465,20.4047619 176.744186,19.5657596 176.744186,18.3072562 L176.744186,18.0975057 C176.744186,16.8390023 175.860465,16 174.534884,16 C173.209302,16 172.325581,16.8390023 172.325581,18.0975057" id="Fill-1-Copy" fill="#6D2077"></path>
                            <path d="M20.3255814,2.09750567 C20.3255814,3.35600907 21.2093023,4.4047619 22.5348837,4.4047619 C23.8604651,4.4047619 24.744186,3.56575964 24.744186,2.30725624 L24.744186,2.09750567 C24.744186,0.839002268 23.8604651,-5.68434189e-14 22.5348837,-5.68434189e-14 C21.2093023,-5.68434189e-14 20.3255814,0.839002268 20.3255814,2.09750567" id="Fill-3" fill="#E0004D"></path>
                            <path d="M164.372093,18.0975057 C164.372093,19.3560091 165.255814,20.4047619 166.581395,20.4047619 C167.906977,20.4047619 168.790698,19.5657596 168.790698,18.3072562 L168.790698,18.0975057 C168.790698,16.8390023 167.906977,16 166.581395,16 C165.255814,16 164.372093,16.8390023 164.372093,18.0975057" id="Fill-3-Copy" fill="#E0004D"></path>
                            <path d="M36.2325581,2.09750567 C36.2325581,3.35600907 37.1162791,4.4047619 38.4418605,4.4047619 C39.7674419,4.4047619 40.6511628,3.56575964 40.6511628,2.30725624 L40.6511628,2.09750567 C40.6511628,0.839002268 39.7674419,-5.68434189e-14 38.4418605,-5.68434189e-14 C37.1162791,-5.68434189e-14 36.2325581,0.839002268 36.2325581,2.09750567" id="Fill-5" fill="#E0004D"></path>
                            <path d="M180.27907,18.0975057 C180.27907,19.3560091 181.162791,20.4047619 182.488372,20.4047619 C183.813953,20.4047619 184.697674,19.5657596 184.697674,18.3072562 L184.697674,18.0975057 C184.697674,16.8390023 183.813953,16 182.488372,16 C181.162791,16 180.27907,16.8390023 180.27907,18.0975057" id="Fill-5-Copy" fill="#E0004D"></path>
                            <line x1="14" y1="20.1309524" x2="26.2071318" y2="20.1309524" id="Line-Copy-4" stroke="#6D2077" stroke-width="2" stroke-linecap="round" stroke-linejoin="round"></line>
                            <line x1="4.92666667" y1="14.4404762" x2="23.7192248" y2="14.4404762" id="Line-Copy-6" stroke="#6D2077" stroke-width="2" stroke-linecap="round" stroke-linejoin="round"></line>
                            <line x1="1" y1="8.44047619" x2="29" y2="8.44047619" id="Line-Copy-5" stroke="#6D2077" stroke-width="2" stroke-linecap="round" stroke-linejoin="round"></line>
                            <line x1="146.601577" y1="14.4404762" x2="156.25675" y2="14.4404762" id="Line-Copy-7" stroke="#6D2077" stroke-width="2" stroke-linecap="round" stroke-linejoin="round"></line>
                            <line x1="146.601577" y1="19.4404762" x2="156.25675" y2="19.4404762" id="Line-Copy-8" stroke="#6D2077" stroke-width="2" stroke-linecap="round" stroke-linejoin="round"></line>
                            <line x1="146.906308" y1="24.4404762" x2="185.526998" y2="24.4404762" id="Line-Copy-9" stroke="#6D2077" stroke-width="2" stroke-linecap="round" stroke-linejoin="round"></line>
                        </g>
                    </g>
                </g>
                <g id="Group-8" transform="translate(60.000000, 0.000000)">
                    <path d="M40.2051282,19.7948718 C39.1794872,18.6666667 37.6410256,18.0512821 36,18.0512821 C34.3589744,18.0512821 32.8205128,18.6666667 31.7948718,19.7948718 C30.6666667,20.8205128 30.0512821,22.3589744 30.0512821,24 C30.0512821,25.6410256 30.6666667,27.1794872 31.7948718,28.2051282 C32.8205128,29.3333333 34.3589744,29.9487179 36,29.9487179 C37.6410256,29.9487179 39.1794872,29.3333333 40.2051282,28.2051282 C41.3333333,27.1794872 41.9487179,25.6410256 41.9487179,24 C41.9487179,22.3589744 41.3333333,20.8205128 40.2051282,19.7948718 M36,16 C38.2564103,16 40.2051282,16.9230769 41.6410256,18.3589744 C43.1794872,19.7948718 44,21.7435897 44,24 C44,26.2564103 43.1794872,28.2051282 41.6410256,29.6410256 C40.2051282,31.0769231 38.2564103,32 36,32 C33.7435897,32 31.7948718,31.0769231 30.3589744,29.6410256 C28.9230769,28.2051282 28,26.2564103 28,24 C28,21.7435897 28.9230769,19.7948718 30.3589744,18.3589744 C31.7948718,16.9230769 33.7435897,16 36,16" id="Fill-1" stroke="#6D2077" fill="#6D2077"></path>
                    <path d="M45.592233,40.4044944 C43.0291262,37.8426966 39.3980583,36.1348315 35.4466019,36.1348315 C31.4951456,36.1348315 27.9708738,37.8426966 25.3009709,40.4044944 C22.7378641,42.9662921 21.1359223,46.5955056 21.1359223,50.5449438 L21.1359223,50.8651685 L49.8640777,50.8651685 L49.8640777,50.5449438 C49.8640777,46.5955056 48.2621359,42.9662921 45.592233,40.4044944 M35.4466019,34 C40.038835,34 44.2038835,35.9213483 47.0873786,38.9101124 C50.0776699,41.8988764 52,45.9550562 52,50.5449438 L51.8932039,51.2921348 L51.7864078,53 L19.2135922,53 L19,51.2921348 L19,50.5449438 C19,45.9550562 20.815534,41.8988764 23.8058252,38.9101124 C26.7961165,35.9213483 30.961165,34 35.4466019,34" id="Fill-3" stroke="#6D2077" fill="#6D2077"></path>
                    <g id="Group-7">
                        <mask id="mask-2" fill="white">
                            <use xlink:href="#path-1"></use>
                        </mask>
                        <g id="Clip-6"></g>
                        <path d="M57.2576615,13.8309248 C51.7092823,8.28254567 44.0269112,4.86815852 35.4909433,4.86815852 C27.061675,4.86815852 19.3793039,8.28254567 13.8309248,13.8309248 C8.28254567,19.3793039 4.86815852,27.061675 4.86815852,35.4909433 C4.86815852,44.0269112 8.28254567,51.7092823 13.8309248,57.2576615 C19.3793039,62.8060406 27.061675,66.2204277 35.4909433,66.2204277 C44.0269112,66.2204277 51.7092823,62.8060406 57.2576615,57.2576615 C62.8060406,51.7092823 66.2204277,44.0269112 66.2204277,35.4909433 C66.2204277,27.061675 62.8060406,19.3793039 57.2576615,13.8309248 M35.4909433,2.73416655 C44.5604092,2.73416655 52.7762783,6.3619529 58.7514558,12.3371304 C64.7266334,18.2056083 68.3544197,26.4214774 68.3544197,35.4909433 C68.3544197,44.5604092 64.7266334,52.7762783 58.7514558,58.7514558 C52.7762783,64.7266334 44.5604092,68.3544197 35.4909433,68.3544197 C26.4214774,68.3544197 18.2056083,64.7266334 12.3371304,58.7514558 C6.3619529,52.7762783 2.73416655,44.5604092 2.73416655,35.4909433 C2.73416655,26.4214774 6.3619529,18.2056083 12.3371304,12.3371304 C18.2056083,6.3619529 26.4214774,2.73416655 35.4909433,2.73416655" id="Fill-5" stroke="#E0004D" stroke-width="2" fill="#E0004D" mask="url(#mask-2)"></path>
                    </g>
                </g>
            </g>
        </g>
    </g>
</svg>