<?xml version="1.0" encoding="utf-8"?>
<!-- Generator: Adobe Illustrator 23.1.1, SVG Export Plug-In . SVG Version: 6.00 Build 0)  -->
<svg version="1.1" id="Layer_1" xmlns="http://www.w3.org/2000/svg" xmlns:xlink="http://www.w3.org/1999/xlink" x="0px" y="0px"
	 viewBox="0 0 761.6 239.2" style="enable-background:new 0 0 761.6 239.2;" xml:space="preserve">
<style type="text/css">
	.st0{fill:#FFFFFF;}
</style>
<title>Lemann-correto</title>
<path class="st0" d="M466.8,162.9H488l0.6,7.9c2.5-3,5.7-5.4,9.3-6.9c3.8-1.7,7.9-2.6,12.1-2.6c8.3,0,14.9,2.5,19.8,7.4
	c4.9,4.9,7.3,12.2,7.3,21.8v44.6H515v-41.5c0-4-1-7.2-3-9.5c-2.1-2.4-5.2-3.7-8.4-3.5c-2.2,0-4.4,0.4-6.5,1.3
	c-1.8,0.8-3.3,2-4.6,3.5c-1.2,1.5-2.2,3.2-2.8,5c-0.6,2-0.9,4-0.9,6.1v38.8h-22L466.8,162.9z M380.3,162.9h21.2l0.6,7.9
	c2.5-3,5.7-5.4,9.3-6.9c3.8-1.7,7.9-2.6,12.1-2.6c8.3,0,14.9,2.5,19.8,7.4c4.9,4.9,7.3,12.2,7.3,21.8v44.6h-22.2v-41.5
	c0-4-1-7.2-3-9.5c-2.1-2.4-5.2-3.7-8.4-3.5c-2.2,0-4.4,0.4-6.5,1.3c-1.8,0.8-3.3,2-4.6,3.5c-1.2,1.5-2.2,3.2-2.8,5
	c-0.6,2-0.9,4-0.9,6.1v38.8h-22L380.3,162.9z M342.8,203.2c-0.5-0.1-1.5-0.2-2.9-0.4c-1.6-0.2-3.3-0.2-4.9-0.2
	c-6.2,0-10.5,0.9-13.1,2.6c-2.5,1.6-4,4.4-3.8,7.4c0,6,3.6,8.9,10.8,8.9c1.8,0,3.5-0.3,5.2-0.9c1.6-0.5,3.1-1.3,4.5-2.4
	c1.3-1.1,2.4-2.4,3.2-3.9c0.9-1.7,1.3-3.5,1.2-5.4V203.2z M342.8,228.3c-2.5,2.9-5.7,5.2-9.3,6.6c-4,1.6-8.3,2.4-12.5,2.3
	c-2.7,0-5.4-0.4-8.1-1.1c-2.8-0.7-5.5-1.9-7.9-3.6c-2.5-1.8-4.6-4.1-6-6.9c-1.7-3.3-2.5-7-2.4-10.8c-0.1-3.9,0.8-7.8,2.5-11.2
	c1.7-3.2,4.1-6.1,7-8.2c3.2-2.3,6.7-4,10.5-5c4.3-1.2,8.7-1.7,13.2-1.7c2.6,0,5.2,0.1,7.8,0.2c1.7,0,3.5,0.2,5.2,0.5v-1.5
	c0-1.6-0.4-3.3-1.2-4.7c-0.8-1.3-1.8-2.4-3.1-3.2c-1.3-0.9-2.8-1.5-4.4-1.9c-1.7-0.4-3.5-0.5-5.2-0.5c-4.2-0.1-8.3,0.6-12.2,1.9
	c-2.9,1.1-5.7,2.4-8.2,4.1l-9.1-13.5c1.7-1.2,3.4-2.4,5.2-3.4c2.2-1.2,4.5-2.3,6.9-3.1c2.9-1,5.9-1.7,9-2.2
	c3.8-0.6,7.6-0.9,11.5-0.8c11,0,19.1,3,24.3,8.9s7.9,13.8,7.9,23.8v42h-20.8L342.8,228.3z M168.1,162.9h21.2l0.8,8
	c2.4-2.9,5.3-5.2,8.6-6.9c3.8-1.9,8-2.9,12.3-2.8c2.6,0,5.2,0.3,7.7,0.9c3.9,1,7.4,2.9,10.4,5.6c1.2,1,2.2,2.2,3.1,3.5
	c3-3.2,6.7-5.7,10.9-7.4c4.2-1.7,8.8-2.6,13.3-2.6c9.2,0,16.3,2.6,21.2,7.8c4.9,5.2,7.3,12.4,7.3,21.4v44.6h-22.2V194
	c0-4.3-1-7.6-2.8-10c-1.9-2.4-4.8-3.5-8.5-3.5c-3.9-0.2-7.7,1.5-10.3,4.5c-2.6,3.2-4,7.3-3.8,11.4v38.8h-21.4V194
	c0-4.3-0.9-7.6-2.8-10c-1.9-2.4-4.8-3.5-8.6-3.5c-3.9-0.1-7.7,1.5-10.2,4.5c-2.7,3.2-4.1,7.2-3.9,11.4v38.8h-22.2V162.9z
	 M134.5,191.4c0-1.6-0.3-3.2-0.9-4.7c-0.6-1.6-1.6-3.1-2.8-4.4c-1.3-1.4-2.9-2.5-4.6-3.3c-2.1-0.9-4.3-1.4-6.6-1.3
	c-2.3,0-4.6,0.4-6.8,1.3c-1.8,0.8-3.5,1.9-4.9,3.3c-1.2,1.3-2.2,2.8-2.9,4.4c-0.6,1.5-1,3.1-1,4.7H134.5z M153.9,227.3
	c-0.8,0.5-2,1.4-3.7,2.5c-2,1.4-4.1,2.5-6.4,3.5c-3,1.3-6.1,2.3-9.3,3c-4,0.9-8.2,1.4-12.3,1.3c-5.7,0.1-11.3-0.9-16.6-2.8
	c-4.7-1.7-9-4.4-12.5-7.9c-3.5-3.5-6.2-7.6-7.9-12.2c-1.8-5.1-2.8-10.4-2.7-15.8c0-5,0.8-9.9,2.5-14.5c1.6-4.5,4.1-8.7,7.3-12.2
	c3.3-3.6,7.3-6.4,11.7-8.4c4.9-2.2,10.3-3.3,15.7-3.2c5.3-0.1,10.5,0.9,15.4,3.1c4.3,2,8.1,4.9,11.2,8.5c3.1,3.9,5.5,8.3,6.9,13.1
	c1.6,5.4,2.4,11.1,2.3,16.7v3.7H104c0.1,4,2,7.7,5.2,10.2c3.3,2.9,7.9,4.4,13.8,4.4c5.7,0,10.4-0.8,14-2.5c2.7-1.2,5.4-2.7,7.8-4.4
	L153.9,227.3z M0,132.4h23.2v82h49.1V235H0V132.4z"/>
<path class="st0" d="M359,101.5c-0.9,2.6-2.3,4.9-4,7c-1.8,2-3.9,3.6-6.3,4.7c-5.3,2.3-11.2,2.3-16.5,0c-2.4-1.1-4.6-2.7-6.3-4.7
	c-1.8-2-3.2-4.4-4-7c-1-2.7-1.5-5.6-1.4-8.5c0-2.9,0.5-5.8,1.4-8.5c0.9-2.6,2.3-5,4-7c1.8-2,3.9-3.6,6.3-4.7
	c5.3-2.3,11.2-2.3,16.5,0c2.4,1.1,4.6,2.7,6.3,4.7c1.8,2,3.2,4.4,4,7c1,2.7,1.5,5.6,1.4,8.5C360.5,95.9,360,98.8,359,101.5
	 M362.3,83.2c-1.1-3-2.8-5.7-5-8c-8.8-9.4-23.5-9.9-32.9-1.1c-0.4,0.4-0.8,0.7-1.1,1.1c-2.1,2.3-3.8,5-5,8c-2.4,6.3-2.4,13.3,0,19.7
	c1.1,2.9,2.8,5.6,5,7.9c8.8,9.4,23.6,9.8,33,1c0.3-0.3,0.7-0.6,1-1c2.1-2.3,3.8-5,5-7.9C364.7,96.5,364.7,89.5,362.3,83.2
	 M281.6,98.2l10-24.8l10,24.8L281.6,98.2z M293.5,69.1H290l-19.6,47.8h3.7l6.2-15.5h22.5l6.2,15.4h4L293.5,69.1z M279.7,60.3
	c1-1.1,2.1-1.9,3.3-2.6c1.2-0.7,2.6-1,4-1c1,0,2,0.2,2.9,0.5c0.8,0.3,1.5,0.7,2.2,1.1c0.7,0.4,1.4,0.8,2,1.1
	c0.7,0.4,1.4,0.5,2.2,0.5c0.9,0,1.8-0.2,2.6-0.6c1-0.5,1.9-1.2,2.7-2l2,2.1c-1,1-2.1,1.9-3.3,2.6c-1.2,0.7-2.6,1-4,1
	c-1,0-2-0.1-2.9-0.5c-0.8-0.3-1.5-0.7-2.2-1.1c-0.7-0.4-1.4-0.8-2-1.1c-0.7-0.4-1.5-0.6-2.3-0.5c-0.9,0-1.9,0.2-2.7,0.6
	c-1,0.5-2,1.2-2.8,2L279.7,60.3z M241.4,128.3c0.8,0.3,1.6,0.6,2.4,0.8c1.1,0.3,2.1,0.4,3.2,0.4c3.7,0,5.6-1.1,5.6-3.2
	c0-1.9-1.5-2.8-4.6-2.8c-1,0-1.9,0.1-2.9,0.3c-1,0.2-2,0.5-3,0.8l0.5-2.9c0.9-0.3,1.8-0.5,2.7-0.8c1.2-0.2,2.5-0.4,3.7-0.3
	c1.1,0,2.2,0.1,3.2,0.5c0.8,0.3,1.6,0.7,2.2,1.3c1,1,1.6,2.3,1.7,3.7c0.1,1.9-0.9,3.6-2.5,4.6c-1.8,1.1-3.9,1.7-6.1,1.6
	c-1.4,0-2.8-0.1-4.2-0.5c-1.1-0.3-1.9-0.6-2.5-0.8L241.4,128.3z M266.1,108.9c-0.5,0.8-1,1.5-1.6,2.2c-1,1.1-2.1,2.2-3.3,3
	c-1.6,1.1-3.4,2-5.2,2.7c-2.4,0.8-4.8,1.3-7.3,1.2c-3.2,0-6.5-0.6-9.4-1.9c-2.8-1.2-5.3-3-7.3-5.3c-2.1-2.3-3.7-5-4.7-8
	c-1.1-3.2-1.7-6.6-1.6-10c0-3.3,0.5-6.6,1.6-9.8c1-2.9,2.6-5.7,4.7-8c2-2.3,4.5-4.1,7.3-5.3c3-1.3,6.2-2,9.4-1.9
	c2.5-0.1,5,0.3,7.3,1.1c1.8,0.7,3.6,1.6,5.2,2.7c1.2,0.9,2.3,1.9,3.3,3.1c0.6,0.7,1.1,1.5,1.6,2.2l-2.6,1.8c-0.3-0.4-0.8-1-1.4-1.8
	c-0.8-1-1.7-1.8-2.7-2.6c-1.3-1-2.8-1.7-4.3-2.3c-2-0.7-4.1-1.1-6.2-1c-2.8-0.1-5.6,0.5-8.2,1.7c-2.4,1.1-4.5,2.7-6.1,4.7
	c-1.7,2-3,4.4-3.8,6.9c-1.8,5.6-1.8,11.6,0,17.1c0.8,2.5,2.2,4.9,3.9,7c1.7,2,3.8,3.6,6.2,4.7c2.6,1.2,5.5,1.7,8.3,1.7
	c2,0,4-0.3,5.9-1c1.5-0.6,3-1.3,4.3-2.3c1-0.7,2-1.6,2.8-2.5c0.7-0.8,1.2-1.4,1.5-1.8L266.1,108.9z M190.2,98.2l10-24.8l10,24.8
	H190.2z M202.1,69h-3.4l-19.6,47.8h3.7l6.1-15.4h22.5l6.2,15.5h4L202.1,69z M170.2,102c-1,2.5-2.5,4.7-4.5,6.5
	c-2.1,1.8-4.5,3.1-7.1,3.8c-3,0.9-6.1,1.3-9.2,1.2H139V72.3h9.8c3.2,0,6.4,0.4,9.5,1.3c2.7,0.7,5.1,2,7.2,3.8c2,1.8,3.6,4,4.6,6.4
	c1.1,2.9,1.7,6,1.6,9.1C171.8,96,171.2,99.2,170.2,102 M173.4,82.2c-1.2-2.9-3.1-5.4-5.5-7.4c-2.5-2-5.4-3.5-8.4-4.3
	c-3.5-1-7.2-1.4-10.8-1.4h-13v47.8h13c3.6,0,7.3-0.4,10.8-1.4c3.1-0.8,6-2.3,8.4-4.3c2.4-2,4.3-4.6,5.5-7.5
	C176,96.8,176,89.1,173.4,82.2 M85.6,69.1h3.6l30.7,42.7V69.1h3.4v47.8h-3.6L88.9,74.8v42.1h-3.3V69.1z M37.1,69.1h3.4v27
	c0,2.5,0.2,5,0.7,7.5c0.4,2.1,1.2,4.1,2.3,6c1.1,1.7,2.7,3,4.5,3.9c2.3,1,4.8,1.5,7.3,1.4c2.5,0.1,5-0.4,7.3-1.4
	c1.8-0.9,3.4-2.2,4.6-3.9c1.2-1.8,2-3.8,2.3-6c0.4-2.5,0.7-5,0.7-7.5V69h3.5v28.8c0,2.7-0.3,5.3-0.9,7.9c-0.5,2.3-1.6,4.5-3,6.4
	c-1.5,1.9-3.4,3.3-5.6,4.3c-2.8,1.1-5.7,1.7-8.7,1.6c-3,0.1-6-0.4-8.7-1.6c-2.2-1-4.1-2.4-5.6-4.3c-1.4-1.9-2.5-4.1-3-6.4
	c-0.6-2.6-0.9-5.3-0.9-7.9L37.1,69.1z M0,69.1h28.6v3.2H3.4v18.1h19.7v3.2H3.4v23.3H0L0,69.1z"/>
<path class="st0" d="M728.8,117.2c-0.8,2-3.5,5.2-9,10.9c-7.5,7.7-14.5,14.7-22.1,22.2l-1.5,1.5l1.5,1.6c3.7,4.1,6.9,7.6,9.8,10.8
	c0.7,1,0.5,2.5-0.5,3.2c-3.4,3.5-21.8,20.7-25.4,24c-1,0.9-1.7,1.3-3.6-0.4s-6.3-5.6-10.3-9.4l-1.5-1.4l-1.5,1.4
	c-3.7,3.5-12.2,11.6-15.8,15.6c-9.2,10.1-17.4,21.1-24.5,32.8l-0.6,1c-1.3-0.9-5.8-4-8.2-5.7c-1.3-1-1.5-1.3-1.5-1.9
	c-0.1-1.4,1-4,3.2-7.8c2-3.5,5.1-8.3,9.5-14.5l0,0c25.7-36.8,60.9-65,90.5-98.4c1,1.1,2.1,2.3,3.3,3.5c2.6,2.7,5.2,5.6,7.3,7.9
	C729.2,116,729.2,116.3,728.8,117.2 M608.2,186c-0.3,0.5-2.4,3.4-2.6,3.6c-1.6-0.6-6.5-5-9.2-7.5c-0.9-1-2-2.5,2.8-10.3
	c13.6-22,31.6-41,50-59c9.3-9.1,19-17.8,28.2-27c1.6-1.5,3.1-3.1,4.7-4.6l3.7-3.8l0.6-0.6c1.2-0.9,2.2-0.6,4.7,0.5s6.2,2.7,9.8-0.5
	c12.6-12.9,23.6-27.2,32.7-42.8c0.1-0.1,0.2-0.3,0.3-0.4c1.2,0,2.3,0.5,3,1.4c0.3,0.4,0.2,0.7,0.2,0.8c-2.5,6.2-5.6,11.3-12.8,21.1
	c-16.4,22.6-50,56.4-59.9,66.3c-3.8,3.8-7.1,7.1-10.1,10.1C630.5,157.4,619.7,169.7,608.2,186 M559,120.7L559,120.7
	C559,120.7,559,120.7,559,120.7L559,120.7c-1,1.6-2,3.1-3,4.7c-0.1,0.1-0.3,0.4-0.4,0.7c-1.3-1.5-3.8-5.7-7-11.2
	c6.9-11.5,15-22.3,24-32.3c9.6-10.8,21.8-22.6,38.4-37.3c0.4-0.4,0.9-0.7,1.4-1c0.1,0,0.3,0,1.3,1.2c1.3,1.5,3.4,4.1,7.2,9
	C587.8,84.6,572.4,100.4,559,120.7 M640.7,61.6c4.4,4.6,9.9,10.2,13.9,14.2c-20.1,19.1-40.8,39.3-62.1,67.4
	c-4.5-5-9.5-10.9-13.3-15.4C594.3,107.2,607.6,92.4,640.7,61.6 M723.6,103.3c-1.3-1.3-2.5-2.6-3.6-3.9c1.4-1.6,2.7-3.2,3.3-4.1
	c1.9-2.6-0.1-5.2-2.3-6.6c-1.9-1.4-4.5-1.1-6,0.6c-13.7,15.5-36,38.5-48.1,49.6c-2,1.8-5.1,1.8-7.1-0.1l-2.2-2.2
	c3-3.1,6.3-6.4,10.1-10.1c10-9.9,43.8-44,60.4-66.8c7.3-10,10.7-15.6,13.3-22.1c0.7-1.7,0.4-3.5-0.6-5c-1.6-2.2-4.2-3.4-6.9-3.4
	c-1.7,0.1-3.3,1.1-4.2,2.6c-8.9,15.1-19.6,29.1-31.8,41.7c-1.3,1.1-2.3,0.8-4.9-0.3s-6-2.6-9.5,0.2l-6.9,6.9c-3.9-3.6-7.2-6.6-8.7-8
	c-1.9-1.8-3.2-2.6-4.8-2.6c-1.4-0.1-2.8,0.5-3.8,1.5c-0.5,0.5-1.1,1.1-1.7,1.6c-3.9-4-9.5-9.6-13.8-14.2c3.2-2.9,6.5-6,10-9.2
	c6.9-6.3,27.8-25.4,31.7-30.6c2.3-3.1-0.6-6.6-3.6-6.6c-1,0-2,0.4-2.7,1.1c-29.6,29.8-30.5,28.9-34,25.4c-1.4-1.4-4-1.8-6.3,0.2
	c-4.4,3.9-10.3,8.5-15,12.6c-3.7-4.8-5.8-7.4-7.1-8.9s-2.5-2.6-4.2-2.8c-2-0.3-3.4,0.8-4.8,2l-0.1,0.1
	c-16.4,14.6-28.6,26.4-38.2,37.1c-1.8-3.4-2.2-5.6,0.5-8.8c11.5-11.8,21.5-20.9,31.2-29.6c1.8-1.6,2.4-3,2.4-4.6
	c0.1-1.6-1-2.9-2.6-3.1c0,0-0.1,0-0.1,0c-1,0-1.6,0.3-3,1.4c-9.7,8.3-12.3,10.6-21.2,18.9c-1.8-4.7-3.1-7.6-3.9-9.4
	c-1.1-2.4-2.3-2.4-4.2-0.5c-10.3,9.9-16.3,16.2-19.8,20.3c-4.8,5.6-5,7.8-4.4,10.2s2.5,7.7,3.7,11c-13.4,19-13.7,20.2-11.8,24.9
	c5,10.6,5.6,11.7,7.9,7.8c0.1-0.2,0.2-0.3,0.3-0.5c6.8,11.5,8.3,13.9,11,13.9h0.1c2.1,0,3.2-1.8,4.1-3.2c0.7-1.1,1.3-2.1,2-3.1
	c8.7,11.7,10.7,12.4,13.3,8.8l1.3-1.8c3.9,4.6,8.9,10.5,13.3,15.3c-6.2,8.8-5.8,9.3-3.7,13.2c2.5,3.7,5.7,6.8,9.4,9.3
	c-5.7,9.1-5.1,12.7-2.2,15.8l0.1,0.1c7.5,6.7,10.1,8.8,12.5,8.8h0.4c1.5-0.3,2.8-1.2,3.5-2.5c0.3-0.4,0.7-1,1.1-1.6l0.9-1.3
	c3.5,3.5,7.2,6.8,11.1,9.9c-4.4,6.3-7.5,11.1-9.6,14.8c-5.4,9.4-4.5,12.4-0.5,15.5l0.1,0c2.1,1.5,8,5.6,8.8,6.1
	c0.7,0.5,1.5,0.7,2.3,0.8c0.3,0,0.5,0,0.8-0.1c1.1-0.3,2.1-1.1,2.6-2.2l0.7-1.1c2.2,1.5,5.8,4,8.5,5.9c1.5,1.1,3.7,0.8,4.9-0.7
	c0-0.1,0.1-0.1,0.1-0.2c6.3-8.6,12.5-16.7,19.4-23.9c1.5-1.5,1.5-4,0-5.5c-0.1-0.1-0.2-0.2-0.3-0.2l-8.5-7.6c3-3.4,9.9-10.1,14-13.9
	c3.6,3.3,7.1,6.5,8.8,8c4.2,3.7,7.6,2.2,9.7,0.4c3.8-3.4,22.1-20.6,25.6-24.2c2.6-2.4,2.9-6.4,0.7-9.2l-0.1-0.1
	c-2.5-2.8-5.3-5.9-8.4-9.3c7-6.9,13.6-13.5,20.6-20.7c10.8-11.1,12.9-14.6,8-20.1C728.9,108.9,726.3,106.1,723.6,103.3"/>
<path class="st0" d="M677.5,53.8c-4.3,4.3-0.3,8.6,3.6,8.6c1.3,0,2.5-0.5,3.3-1.4c14.2-14.8,25.7-27.3,34.4-42.8
	C720.1,15.8,724,7.4,724,5c0-1.7-3-5-5.6-5c-0.7,0-1.3,0.4-1.5,1C713.7,9.8,708.7,23,677.5,53.8"/>
<path class="st0" d="M752.5,1.8c-0.5,0-0.5,0.5-0.4,1c2.5,9,6.7,24-11.9,53.5c-2.2,3.4,0.3,6.5,1.2,7.3c1,1.1,4.3,2.6,5.8,0
	c5.5-9.5,13-22.6,14.2-36.7C762.9,9.6,757.1,1.8,752.5,1.8"/>
<path class="st0" d="M748.6,82.1c-1.1,0-2.2,0.6-2.8,1.5c-1.7,2.2-4,5.5-5.5,7.5c-1,1.3-1.6,2.9-1.7,4.6c0.1,1.6,0.9,3.1,2.1,4.1
	c1.5,1.5,4,1.6,5.6,0c0.2-0.2,0.3-0.3,0.4-0.5c1.9-2.6,4.4-6.1,5.7-8c0.6-0.8,0.9-1.8,1.1-2.8C753.9,85.1,751.5,82.1,748.6,82.1"/>
<path class="st0" d="M618.5,33.8c1.3,0.1,2.6-0.4,3.6-1.2c3.9-3.3,13.5-11.4,15.4-13c1.4-1.1,1.6-3.2,0.4-4.5
	c-0.6-0.7-1.5-1.1-2.4-1.2c-1.1,0-2.2,0.4-3,1.1c-3.4,2.7-10.3,8.4-15.4,12.6C614.7,29.6,616,33.6,618.5,33.8"/>
</svg>
