<?xml version="1.0" encoding="UTF-8"?>
<svg width="78px" height="48px" viewBox="0 0 78 48" version="1.1" xmlns="http://www.w3.org/2000/svg" xmlns:xlink="http://www.w3.org/1999/xlink">
    <!-- Generator: Sketch 53 (72520) - https://sketchapp.com -->
    <title>logo-ne-preferencial</title>
    <desc>Created with Sketch.</desc>
    <defs>
        <polygon id="path-1" points="2.58760108e-05 0.0883407008 77.0167116 0.0883407008 77.0167116 22.7708636 2.58760108e-05 22.7708636"></polygon>
        <polygon id="path-3" points="1.29380054e-05 0.12045283 61.4918943 0.12045283 61.4918943 22.8030792 1.29380054e-05 22.8030792"></polygon>
    </defs>
    <g id="🚀-Componentes" stroke="none" stroke-width="1" fill="none" fill-rule="evenodd">
        <g id="Headers" transform="translate(-24.000000, -76.000000)">
            <g id="Group-3" transform="translate(0.000000, 60.000000)">
                <g id="logo-ne-preferencial" transform="translate(24.000000, 16.000000)">
                    <path d="M62.8454814,37.2484011 C62.3471094,37.5982447 62.093007,38.0645305 62.093007,38.6473876 C62.093007,39.2305035 62.3261499,39.6864388 62.8030447,40.0043256 C63.2694598,40.3328216 63.8313574,40.491959 64.4989585,40.491959 C65.2835191,40.491959 65.9723385,40.2588162 66.5553251,39.8028809 C67.1381822,39.3472043 67.4351094,38.7640884 67.4351094,38.032703 L67.4351094,37.2379213 C66.5342361,36.8986868 65.6860205,36.7289402 64.8700205,36.7289402 C64.0113251,36.7289402 63.343724,36.8986868 62.8454814,37.2484011" id="Fill-1" fill="#FFFFFF"></path>
                    <path d="M14.5053542,33.4644097 C13.9223677,32.955558 13.1806318,32.7013261 12.2899795,32.7013261 C11.378497,32.7013261 10.6154135,32.9660377 10.011338,33.485628 C9.39639461,34.0050889 9.03607116,34.7258652 8.92985013,35.6479569 L15.5335375,35.6479569 C15.4274458,34.7046469 15.0880819,33.9733908 14.5053542,33.4644097" id="Fill-3" fill="#FFFFFF"></path>
                    <path d="M46.6895224,32.9132765 C45.6719482,32.9132765 44.8344712,33.2523817 44.1774792,33.9413305 C43.5202286,34.6302792 43.1917326,35.4889747 43.1917326,36.5383763 C43.1917326,37.5875191 43.5202286,38.4462146 44.1774792,39.1352927 C44.8344712,39.8241121 45.6719482,40.1632173 46.6895224,40.1632173 C47.7177057,40.1632173 48.5551827,39.8241121 49.2120453,39.1352927 C49.8588162,38.4569531 50.1873121,37.5875191 50.1873121,36.5383763 C50.1873121,35.4889747 49.8588162,34.6195407 49.2120453,33.9307213 C48.5551827,33.2523817 47.7177057,32.9132765 46.6895224,32.9132765" id="Fill-5" fill="#FFFFFF"></path>
                    <g id="Group-9" transform="translate(0.000000, 25.108658)">
                        <mask id="mask-2" fill="white">
                            <use xlink:href="#path-1"></use>
                        </mask>
                        <g id="Clip-8"></g>
                        <path d="M71.0069046,16.7505509 C70.6464518,16.994303 70.2119935,17.1214836 69.7137509,17.1214836 C69.2262469,17.1214836 68.8128776,16.994303 68.4634221,16.7400712 C68.1134491,16.4960604 67.8695677,16.1463461 67.7320367,15.7012787 C67.2656216,16.1463461 66.7142038,16.4960604 66.067821,16.7400712 C65.4210501,16.994303 64.7321013,17.1214836 64.0220636,17.1214836 C63.2588507,17.1214836 62.5592927,16.994303 61.9232604,16.7188528 C61.2768776,16.4537531 60.7574167,16.050993 60.3440474,15.4892248 C59.9306782,14.9379364 59.7292334,14.2915536 59.7292334,13.5389499 C59.7292334,12.7651278 59.9518965,12.0973973 60.3969639,11.5565887 C60.8315515,11.0162976 61.414538,10.6238879 62.1247051,10.3803946 C62.8350016,10.1363838 63.6402631,10.0199418 64.5626135,10.0199418 C65.5695784,10.0199418 66.5233682,10.1894296 67.4351094,10.518055 L67.4351094,9.91385013 C67.4351094,9.18259407 67.1487914,8.61021671 66.5872819,8.19684744 C66.0149046,7.79395795 65.3255677,7.59264259 64.5201768,7.59264259 C63.407379,7.59264259 62.4321121,8.00601186 61.5735461,8.84335957 L61.3933197,8.84335957 L60.2061283,7.71982318 L60.2061283,7.53972615 C61.4675838,6.34192561 62.9725326,5.73772075 64.7427105,5.73772075 C65.2306027,5.73772075 65.7073682,5.78002803 66.1629154,5.86490135 C66.6188507,5.96025445 67.0746566,6.10865337 67.5195946,6.31022749 C67.954441,6.52202264 68.3464625,6.78699299 68.6753466,7.09452938 C69.0038426,7.40193639 69.2582038,7.80443774 69.4596485,8.28146199 C69.6607051,8.7692248 69.7561876,9.30977466 69.7561876,9.91385013 L69.7561876,14.1005887 C69.7561876,14.7367504 69.9260636,15.0546372 70.2545596,15.0546372 C70.3710016,15.0546372 70.4874437,15.0119418 70.6044032,14.9273272 L70.752414,14.9907235 L71.1023871,16.5915429 L71.0069046,16.7505509 Z M58.446042,16.7505509 C58.0857186,16.994303 57.6297833,17.1214836 57.0787536,17.1214836 C56.3472388,17.1214836 55.7962092,16.8988205 55.4039288,16.4431439 C55.0117779,15.9979472 54.8209423,15.3938717 54.8209423,14.6199202 L54.8209423,3.22050243 L57.0149693,2.89187709 L57.1848453,3.0085779 L57.1848453,14.1005887 C57.1848453,14.4187342 57.216414,14.6518771 57.2908075,14.8108852 C57.3649423,14.9698933 57.4921229,15.0546372 57.6723493,15.0546372 C57.7995299,15.0546372 57.9161013,15.0119418 58.0326728,14.9273272 L58.1916809,14.9907235 L58.530786,16.5915429 L58.446042,16.7505509 Z M50.9396701,15.499834 C49.8268722,16.5808043 48.4066674,17.1214836 46.6895353,17.1214836 C44.9722739,17.1214836 43.5626782,16.5808043 42.4497509,15.4892248 C41.3366943,14.4081251 40.7856647,13.0513164 40.7856647,11.4296668 C40.7856647,9.80801725 41.3366943,8.45133801 42.4497509,7.35949973 C43.5626782,6.2784 44.9722739,5.73772075 46.6895353,5.73772075 C48.4066674,5.73772075 49.8268722,6.2784 50.9396701,7.35949973 C52.0528561,8.45133801 52.6146243,9.80801725 52.6146243,11.4296668 C52.6146243,13.0619256 52.0528561,14.4187342 50.9396701,15.499834 L50.9396701,15.499834 Z M39.6924032,7.82591482 L38.3251148,9.02358598 L38.1448884,9.02358598 C37.328759,8.20732722 36.3854491,7.80443774 35.3042199,7.80443774 C34.2760367,7.80443774 33.4280798,8.14380162 32.7709585,8.8327504 C32.1139666,9.52169919 31.7854706,10.3908744 31.7854706,11.4508852 C31.7854706,12.500028 32.1139666,13.3692032 32.7603493,14.0370631 C33.4071202,14.7155321 34.2760367,15.0546372 35.3677456,15.0546372 C36.5020205,15.0546372 37.4349801,14.6518771 38.1448884,13.8356183 L38.3251148,13.8356183 L39.6924032,15.0334189 L39.6924032,15.2030361 C39.1944194,15.7965024 38.5583871,16.2626588 37.7951741,16.602152 C37.0212226,16.9519957 36.1735245,17.1214836 35.2408237,17.1214836 C33.5553898,17.1214836 32.166883,16.5808043 31.0540852,15.4892248 C29.9408992,14.4081251 29.379131,13.0513164 29.379131,11.4296668 C29.379131,9.80801725 29.9408992,8.45133801 31.0540852,7.35949973 C32.166883,6.2784 33.5553898,5.73772075 35.2408237,5.73772075 C36.1735245,5.73772075 37.0212226,5.90707925 37.7951741,6.24644313 C38.5583871,6.59641617 39.1944194,7.06270189 39.6924032,7.65616819 L39.6924032,7.82591482 Z M26.7070447,16.252179 C25.9120043,16.8352949 24.90491,17.1214836 23.6860205,17.1214836 C22.7427105,17.1214836 21.8734059,16.9412571 21.089104,16.5701951 C20.294193,16.2098717 19.6478102,15.722497 19.1494383,15.0970739 L19.1494383,14.9273272 L20.3683278,13.856966 L20.5380744,13.856966 C20.8559612,14.2915536 21.2798102,14.6411385 21.8098803,14.9168474 C22.339821,15.2030361 22.9123278,15.3408259 23.5164032,15.3408259 C24.0993898,15.3408259 24.5762846,15.2136453 24.9472173,14.9591547 C25.3076701,14.7047935 25.4880259,14.3656884 25.4880259,13.9523191 C25.4880259,13.5177315 25.2652334,13.1572787 24.8204248,12.8606102 C24.5445865,12.6803838 23.9616,12.4154135 23.0605973,12.076179 C22.7531903,11.9596075 22.5200474,11.8746049 22.339821,11.8004701 C22.159724,11.7370739 21.9264518,11.6415914 21.6508722,11.5142814 C21.3754221,11.3871008 21.152759,11.2706588 20.9937509,11.153958 C20.8241337,11.0479957 20.6440367,10.9100765 20.4427213,10.7407181 C20.2412765,10.58171 20.0927482,10.4120927 19.986786,10.2318663 C19.8806943,10.0516399 19.7960798,9.85019515 19.7216863,9.60644313 C19.6478102,9.36256173 19.6052442,9.10832992 19.6052442,8.84335957 C19.6052442,7.92126792 19.965697,7.17914394 20.6970825,6.59641617 C21.4178588,6.02403881 22.3717779,5.73772075 23.5589693,5.73772075 C24.4066674,5.73772075 25.1806189,5.88611968 25.8906566,6.1933973 C26.5902146,6.50080431 27.1413736,6.92478275 27.5335245,7.45485283 L27.5335245,7.63507925 L26.3145057,8.67361294 L26.1450178,8.67361294 C25.8376108,8.31341887 25.4561984,8.02723019 25.0214814,7.82591482 C24.5762846,7.62447008 24.0993898,7.51850782 23.6012765,7.51850782 C23.0818156,7.51850782 22.6896647,7.62447008 22.403476,7.84713315 C22.1172873,8.06953747 21.979627,8.34524636 21.979627,8.69483127 C21.979627,9.03393639 22.1172873,9.30977466 22.403476,9.51109003 C22.6791849,9.71253477 23.1560798,9.95628679 23.8450286,10.2318663 C23.9191633,10.2635644 24.0464733,10.3058717 24.205352,10.3591763 C24.5762846,10.4968367 24.9156485,10.6238879 25.2229261,10.7513272 C25.5303332,10.8783784 25.8589585,11.0375159 26.2086728,11.2387019 C26.5583871,11.4401466 26.8448345,11.6523299 27.0883278,11.8746049 C27.3218588,12.1080065 27.5124356,12.3941951 27.671573,12.7333003 C27.8304518,13.0830146 27.9044571,13.4648151 27.9044571,13.8781844 C27.9044571,14.8848906 27.501697,15.6693218 26.7070447,16.252179 L26.7070447,16.252179 Z M17.8124248,12.0549606 L8.9298372,12.0549606 C9.02544906,13.0513164 9.4176,13.8251385 10.1277671,14.386648 C10.8273251,14.9486749 11.6539342,15.2241251 12.6187213,15.2241251 C13.2865811,15.2241251 13.9329639,15.0970739 14.5688668,14.8427127 C15.1941606,14.5882221 15.7030124,14.2277693 16.0952927,13.7720927 L16.2436916,13.7720927 L17.4839288,14.8848906 L17.4839288,15.0546372 C16.9432496,15.743586 16.2224733,16.252179 15.3322092,16.602152 C14.4310771,16.9519957 13.5194652,17.1214836 12.5761553,17.1214836 C11.7812442,17.1214836 11.0287698,16.994303 10.3187321,16.7400712 C9.59769704,16.4960604 8.96192345,16.1357369 8.41063504,15.6693218 C7.84886685,15.2030361 7.41414987,14.6094404 7.08565391,13.8781844 C6.75715795,13.1572787 6.58741132,12.3517585 6.58741132,11.4721035 C6.58741132,9.80801725 7.1174814,8.44059946 8.17749218,7.35949973 C9.23737358,6.2784 10.6047914,5.73772075 12.2687482,5.73772075 C13.3605865,5.73772075 14.3464625,5.98147278 15.2047698,6.4691062 C16.0634652,6.95673962 16.7205865,7.62447008 17.1870016,8.46181779 C17.6426782,9.29903612 17.875821,10.2423461 17.875821,11.2812679 C17.875821,11.5886749 17.8546027,11.8430361 17.8124248,12.0549606 L17.8124248,12.0549606 Z M2.58760108e-05,22.7708636 L77.0167375,22.7708636 L77.0167375,0.0883407008 L2.58760108e-05,0.0883407008 L2.58760108e-05,22.7708636 Z" id="Fill-7" fill="#FFFFFF" mask="url(#mask-2)"></path>
                    </g>
                    <path d="M25.8005822,7.84564528 C24.7831375,7.84564528 23.945531,8.18487978 23.2885391,8.87369919 C22.6312884,9.56277736 22.3027925,10.4213434 22.3027925,11.4706156 C22.3027925,12.5198879 22.6312884,13.3784539 23.2885391,14.0675321 C23.945531,14.7564809 24.7831375,15.0957154 25.8005822,15.0957154 C26.8290243,15.0957154 27.6662426,14.7564809 28.3232345,14.0675321 C28.9701348,13.3891925 29.298372,12.5198879 29.298372,11.4706156 C29.298372,10.4213434 28.9701348,9.55203881 28.3232345,8.86321941 C27.6662426,8.18487978 26.8290243,7.84564528 25.8005822,7.84564528" id="Fill-10" fill="#FFFFFF"></path>
                    <path d="M47.320496,12.1807569 C46.8222534,12.5306005 46.5681509,12.9968863 46.5681509,13.5798728 C46.5681509,14.1628593 46.8011644,14.6186652 47.2781887,14.9366814 C47.7444744,15.2651774 48.3062426,15.4243148 48.973973,15.4243148 C49.7584043,15.4243148 50.4473531,15.191172 51.030469,14.7352367 C51.6135849,14.2795601 51.9099946,13.6964442 51.9099946,12.9650588 L51.9099946,12.1701477 C51.0091213,11.8310426 50.1612938,11.661296 49.3447763,11.661296 C48.4867278,11.661296 47.8188679,11.8310426 47.320496,12.1807569" id="Fill-12" fill="#FFFFFF"></path>
                    <g id="Group-16" transform="translate(0.000000, 0.008927)">
                        <mask id="mask-4" fill="white">
                            <use xlink:href="#path-3"></use>
                        </mask>
                        <g id="Clip-15"></g>
                        <path d="M55.4821908,16.7826372 C55.1218674,17.0263892 54.687021,17.1535698 54.1890372,17.1535698 C53.7015332,17.1535698 53.2881639,17.0263892 52.9383202,16.772028 C52.5883472,16.5281466 52.3448539,16.1785617 52.2069348,15.733365 C51.7405197,16.1785617 51.1893606,16.5281466 50.5427191,16.772028 C49.8963364,17.0263892 49.2072582,17.1535698 48.4972205,17.1535698 C47.7338782,17.1535698 47.0344496,17.0263892 46.3985466,16.7508097 C45.7517757,16.4859687 45.2323148,16.0830792 44.8192043,15.5213111 C44.405835,14.9700226 44.2045197,14.3236399 44.2045197,13.5710361 C44.2045197,12.797214 44.4270534,12.1296129 44.8721208,11.5889337 C45.3068377,11.0482544 45.8895655,10.6561035 46.599862,10.4123515 C47.3098997,10.1684701 48.1155493,10.052028 49.0373822,10.052028 C50.0446059,10.052028 50.9986544,10.2215159 51.9100075,10.5501412 L51.9100075,9.94606577 C51.9100075,9.21468032 51.6240776,8.64230296 51.0621801,8.22880431 C50.4898027,7.82617358 49.8008539,7.62472884 48.9953337,7.62472884 C47.8822771,7.62472884 46.907269,8.03809811 46.048703,8.87544582 L45.8684765,8.87544582 L44.6815439,7.75190943 L44.6815439,7.5718124 C45.9427407,6.37401186 47.4478189,5.76980701 49.2179968,5.76980701 C49.7055008,5.76980701 50.1823957,5.81211429 50.638331,5.89711698 C51.0941369,5.9923407 51.5495547,6.140869 51.9950102,6.34218437 C52.4293391,6.55423827 52.8218782,6.81920863 53.1502447,7.12661563 C53.4789995,7.43402264 53.7329725,7.83665337 53.9345466,8.31367763 C54.1359914,8.80131105 54.2314739,9.34186092 54.2314739,9.94606577 L54.2314739,14.1326749 C54.2314739,14.7688367 54.4010911,15.0867235 54.7294577,15.0867235 C54.8461585,15.0867235 54.9627299,15.0441574 55.0794307,14.9595429 L55.2277003,15.0229391 L55.5774146,16.6236291 L55.4821908,16.7826372 Z M39.1893606,16.8885995 L37.4089617,16.8885995 L34.1544065,9.09797951 C33.9745682,8.65278275 33.8050803,8.33489596 33.6458135,8.14406038 C33.4869348,7.95335418 33.3279267,7.84726253 33.1477003,7.83665337 C32.9356464,7.80495526 32.7555493,7.85800108 32.6071504,7.98518167 L32.4587515,7.9213973 L32.0879482,6.27852938 L32.1724334,6.09830296 C32.5117973,5.87589865 32.9356464,5.76980701 33.4551073,5.76980701 C34.1016194,5.76980701 34.6209509,5.96051321 35.0343202,6.35279353 C35.4476895,6.74494447 35.7976625,7.34901995 36.0834631,8.16540809 L38.2990965,13.9313596 L41.4470426,6.03477736 L43.5775439,6.03477736 L43.6624173,6.18330566 L39.1893606,16.8885995 Z M30.0509887,15.5319202 C28.9380615,16.6128906 27.5175978,17.1535698 25.8005951,17.1535698 C24.0834631,17.1535698 22.673738,16.6128906 21.5608108,15.5213111 C20.4477542,14.4400819 19.8968539,13.0834027 19.8968539,11.4617531 C19.8968539,9.83997412 20.4477542,8.48329488 21.5608108,7.39158598 C22.673738,6.31048625 24.0834631,5.76980701 25.8005951,5.76980701 C27.5175978,5.76980701 28.9380615,6.31048625 30.0509887,7.39158598 C31.1640453,8.48329488 31.7256841,9.83997412 31.7256841,11.4617531 C31.7256841,13.0941412 31.1640453,14.4508205 30.0509887,15.5319202 L30.0509887,15.5319202 Z M18.6126275,16.7826372 C18.2521747,17.0263892 17.7963687,17.1535698 17.2450803,17.1535698 C16.5138243,17.1535698 15.9521854,16.9416453 15.5705143,16.4964485 C15.178234,16.0617315 14.9873984,15.4683946 14.9873984,14.7157908 L14.9873984,10.5501412 C14.9873984,9.71279353 14.7543849,9.05567224 14.2987084,8.55755903 C13.8321639,8.05944582 13.1962609,7.81543504 12.3798728,7.81543504 C11.5640022,7.81543504 10.8961423,8.05944582 10.3978997,8.55755903 C9.90004528,9.05567224 9.64542534,9.72327332 9.64542534,10.5501412 L9.64542534,16.8885995 L7.26043342,16.8885995 L7.26043342,8.79070189 C7.26043342,8.47255633 7.22873531,8.22880431 7.15447116,8.06992561 C7.08046577,7.91091752 6.95302642,7.83665337 6.76257898,7.83665337 C6.64587817,7.83665337 6.52904798,7.87921941 6.41247655,7.96383396 L6.26407763,7.90043774 L5.91449272,6.29974771 L5.99923666,6.140869 C6.35943073,5.89711698 6.80475687,5.76980701 7.32421779,5.76980701 C7.81185121,5.76980701 8.22522049,5.88637844 8.57454663,6.11952129 C8.92451968,6.3634027 9.16853046,6.7026372 9.3064496,7.13709542 C10.2179321,6.22548356 11.3943849,5.76980701 12.8358081,5.76980701 C14.2030965,5.76980701 15.3052852,6.19378544 16.1215439,7.04174232 C16.9379321,7.88969919 17.351172,8.99201725 17.351172,10.359435 L17.351172,14.1326749 C17.351172,14.7688367 17.5207892,15.0867235 17.8492852,15.0867235 C17.9657272,15.0867235 18.0825574,15.0441574 18.1991288,14.9595429 L18.3582663,15.0229391 L18.6971127,16.6236291 L18.6126275,16.7826372 Z M1.29380054e-05,22.8030792 L61.4918943,22.8030792 L61.4918943,0.120426954 L1.29380054e-05,0.120426954 L1.29380054e-05,22.8030792 Z" id="Fill-14" fill="#FFFFFF" mask="url(#mask-4)"></path>
                    </g>
                </g>
            </g>
        </g>
    </g>
</svg>